<svg id="visual" viewBox="0 0 960 540" width="960" height="540" xmlns="http://www.w3.org/2000/svg" xmlns:xlink="http://www.w3.org/1999/xlink" version="1.1"><path d="M0 77L14.5 73.3C29 69.7 58 62.3 87.2 57.8C116.3 53.3 145.7 51.7 174.8 51.7C204 51.7 233 53.3 262 57.8C291 62.3 320 69.7 349 70.5C378 71.3 407 65.7 436.2 67.3C465.3 69 494.7 78 523.8 76.3C553 74.7 582 62.3 611 56.2C640 50 669 50 698 53.5C727 57 756 64 785.2 64C814.3 64 843.7 57 872.8 55.2C902 53.3 931 56.7 945.5 58.3L960 60L960 0L945.5 0C931 0 902 0 872.8 0C843.7 0 814.3 0 785.2 0C756 0 727 0 698 0C669 0 640 0 611 0C582 0 553 0 523.8 0C494.7 0 465.3 0 436.2 0C407 0 378 0 349 0C320 0 291 0 262 0C233 0 204 0 174.8 0C145.7 0 116.3 0 87.2 0C58 0 29 0 14.5 0L0 0Z" fill="#000000"></path><path d="M0 206L14.5 207.8C29 209.7 58 213.3 87.2 221.5C116.3 229.7 145.7 242.3 174.8 235.2C204 228 233 201 262 195.5C291 190 320 206 349 219.5C378 233 407 244 436.2 239.5C465.3 235 494.7 215 523.8 203.3C553 191.7 582 188.3 611 189.3C640 190.3 669 195.7 698 205.5C727 215.3 756 229.7 785.2 232.3C814.3 235 843.7 226 872.8 221.5C902 217 931 217 945.5 217L960 217L960 58L945.5 56.3C931 54.7 902 51.3 872.8 53.2C843.7 55 814.3 62 785.2 62C756 62 727 55 698 51.5C669 48 640 48 611 54.2C582 60.3 553 72.7 523.8 74.3C494.7 76 465.3 67 436.2 65.3C407 63.7 378 69.3 349 68.5C320 67.7 291 60.3 262 55.8C233 51.3 204 49.7 174.8 49.7C145.7 49.7 116.3 51.3 87.2 55.8C58 60.3 29 67.7 14.5 71.3L0 75Z" fill="#151313"></path><path d="M0 271L14.5 273.7C29 276.3 58 281.7 87.2 285.3C116.3 289 145.7 291 174.8 281.2C204 271.3 233 249.7 262 247.8C291 246 320 264 349 276.5C378 289 407 296 436.2 292.3C465.3 288.7 494.7 274.3 523.8 261.8C553 249.3 582 238.7 611 237.8C640 237 669 246 698 259.5C727 273 756 291 785.2 297.3C814.3 303.7 843.7 298.3 872.8 294.7C902 291 931 289 945.5 288L960 287L960 215L945.5 215C931 215 902 215 872.8 219.5C843.7 224 814.3 233 785.2 230.3C756 227.7 727 213.3 698 203.5C669 193.7 640 188.3 611 187.3C582 186.3 553 189.7 523.8 201.3C494.7 213 465.3 233 436.2 237.5C407 242 378 231 349 217.5C320 204 291 188 262 193.5C233 199 204 226 174.8 233.2C145.7 240.3 116.3 227.7 87.2 219.5C58 211.3 29 207.7 14.5 205.8L0 204Z" fill="#211f1f"></path><path d="M0 314L14.5 320.3C29 326.7 58 339.3 87.2 344.8C116.3 350.3 145.7 348.7 174.8 335.2C204 321.7 233 296.3 262 295.3C291 294.3 320 317.7 349 333.8C378 350 407 359 436.2 353.7C465.3 348.3 494.7 328.7 523.8 316.2C553 303.7 582 298.3 611 297.3C640 296.3 669 299.7 698 312.2C727 324.7 756 346.3 785.2 350.8C814.3 355.3 843.7 342.7 872.8 335.5C902 328.3 931 326.7 945.5 325.8L960 325L960 285L945.5 286C931 287 902 289 872.8 292.7C843.7 296.3 814.3 301.7 785.2 295.3C756 289 727 271 698 257.5C669 244 640 235 611 235.8C582 236.7 553 247.3 523.8 259.8C494.7 272.3 465.3 286.7 436.2 290.3C407 294 378 287 349 274.5C320 262 291 244 262 245.8C233 247.7 204 269.3 174.8 279.2C145.7 289 116.3 287 87.2 283.3C58 279.7 29 274.3 14.5 271.7L0 269Z" fill="#2d2b2b"></path><path d="M0 455L14.5 452.2C29 449.3 58 443.7 87.2 442.7C116.3 441.7 145.7 445.3 174.8 444.5C204 443.7 233 438.3 262 442C291 445.7 320 458.3 349 466.5C378 474.7 407 478.3 436.2 475.7C465.3 473 494.7 464 523.8 454C553 444 582 433 611 431.2C640 429.3 669 436.7 698 445.7C727 454.7 756 465.3 785.2 469.8C814.3 474.3 843.7 472.7 872.8 472.7C902 472.7 931 474.3 945.5 475.2L960 476L960 323L945.5 323.8C931 324.7 902 326.3 872.8 333.5C843.7 340.7 814.3 353.3 785.2 348.8C756 344.3 727 322.7 698 310.2C669 297.7 640 294.3 611 295.3C582 296.3 553 301.7 523.8 314.2C494.7 326.7 465.3 346.3 436.2 351.7C407 357 378 348 349 331.8C320 315.7 291 292.3 262 293.3C233 294.3 204 319.7 174.8 333.2C145.7 346.7 116.3 348.3 87.2 342.8C58 337.3 29 324.7 14.5 318.3L0 312Z" fill="#3a3838"></path><path d="M0 541L14.5 541C29 541 58 541 87.2 541C116.3 541 145.7 541 174.8 541C204 541 233 541 262 541C291 541 320 541 349 541C378 541 407 541 436.2 541C465.3 541 494.7 541 523.8 541C553 541 582 541 611 541C640 541 669 541 698 541C727 541 756 541 785.2 541C814.3 541 843.7 541 872.8 541C902 541 931 541 945.5 541L960 541L960 474L945.5 473.2C931 472.3 902 470.7 872.8 470.7C843.7 470.7 814.3 472.3 785.2 467.8C756 463.3 727 452.7 698 443.7C669 434.7 640 427.3 611 429.2C582 431 553 442 523.8 452C494.7 462 465.3 471 436.2 473.7C407 476.3 378 472.7 349 464.5C320 456.3 291 443.7 262 440C233 436.3 204 441.7 174.8 442.5C145.7 443.3 116.3 439.7 87.2 440.7C58 441.7 29 447.3 14.5 450.2L0 453Z" fill="#474545"></path></svg>